<?xml version="1.0" encoding="iso-8859-1"?>
<!-- Generator: Adobe Illustrator 16.2.0, SVG Export Plug-In . SVG Version: 6.00 Build 0)  -->
<!DOCTYPE svg PUBLIC "-//W3C//DTD SVG 1.1//EN" "http://www.w3.org/Graphics/SVG/1.1/DTD/svg11.dtd">
<svg version="1.1" id="logo"
	 xmlns="http://www.w3.org/2000/svg" xmlns:xlink="http://www.w3.org/1999/xlink" x="0px" y="0px" width="224.606px"
	 height="51.522px" viewBox="0 0 224.606 51.522" style="enable-background:new 0 0 224.606 51.522;" xml:space="preserve">
<g>
	<path d="M0,13.776C0,5.668,6.052,0.13,13.843,0.13c5.339,0,8.623,2.769,10.601,5.933l-3.955,2.017
		c-1.266-2.175-3.797-3.836-6.646-3.836c-5.221,0-9.097,3.995-9.097,9.532s3.876,9.532,9.097,9.532c2.849,0,5.38-1.622,6.646-3.836
		l3.955,2.017c-2.018,3.164-5.261,5.933-10.601,5.933C6.052,27.422,0,21.885,0,13.776"/>
	<polygon points="89.108,26.948 89.108,7.369 81,26.948 79.021,26.948 70.953,7.369 70.953,26.948 66.325,26.948 66.325,0.565 
		72.852,0.565 80.01,17.93 87.21,0.565 93.736,0.565 93.736,26.948 	"/>
	<polygon points="126.087,26.948 126.087,7.369 117.979,26.948 116.001,26.948 107.932,7.369 107.932,26.948 103.304,26.948 
		103.304,0.565 109.831,0.565 116.99,17.93 124.188,0.565 130.715,0.565 130.715,26.948 	"/>
	<path d="M174.495,26.948V0.565h9.81c8.227,0,13.804,5.459,13.804,13.211c0,7.752-5.577,13.171-13.804,13.171H174.495z
		 M193.362,13.776c0-5.103-3.165-9.137-9.058-9.137h-5.181v18.235h5.181C190.04,22.874,193.362,18.76,193.362,13.776"/>
	<polygon points="206.53,26.948 206.53,0.565 224.606,0.565 224.606,4.639 211.158,4.639 211.158,11.482 224.329,11.482 
		224.329,15.556 211.158,15.556 211.158,22.874 224.606,22.874 224.606,26.948 	"/>
	<path d="M47.285,0v4.562c4.157,1.008,7.256,4.75,7.256,9.213s-3.1,8.206-7.256,9.213v4.562c6.637-1.072,11.722-6.84,11.722-13.775
		C59.007,6.84,53.922,1.072,47.285,0"/>
	<path d="M42.819,22.988c-4.156-1.008-7.257-4.751-7.257-9.213c0-4.462,3.101-8.205,7.257-9.213V0
		c-6.637,1.072-11.722,6.84-11.722,13.775s5.085,12.702,11.722,13.774V22.988z"/>
	<path d="M150.351,22.988c-4.156-1.008-7.256-4.751-7.256-9.213c0-4.462,3.1-8.205,7.256-9.213V0
		c-6.637,1.072-11.722,6.84-11.722,13.775s5.085,12.702,11.722,13.774V22.988z"/>
	<path d="M154.817,0v4.562c4.157,1.008,7.257,4.75,7.257,9.213s-3.1,8.206-7.257,9.213v4.562c6.637-1.072,11.723-6.84,11.723-13.775
		C166.54,6.84,161.454,1.072,154.817,0"/>
	<polygon points="60.047,51.324 60.047,42.031 56.719,42.031 56.719,40.334 65.303,40.334 65.303,42.031 61.975,42.031 
		61.975,51.324 	"/>
	<path d="M74.861,51.324l-2.438-4.103h-1.911v4.103h-1.928v-10.99h4.828c2.175,0,3.592,1.417,3.592,3.444
		c0,1.961-1.285,3.016-2.604,3.229l2.686,4.317H74.861z M75.026,43.778c0-1.055-0.791-1.747-1.878-1.747h-2.636v3.494h2.636
		C74.235,45.525,75.026,44.832,75.026,43.778"/>
	<polygon points="80.581,51.324 80.581,40.334 88.11,40.334 88.11,42.031 82.508,42.031 82.508,44.881 87.995,44.881 87.995,46.579 
		82.508,46.579 82.508,49.626 88.11,49.626 88.11,51.324 	"/>
	<polygon points="99.399,51.324 93.665,43.481 93.665,51.324 91.737,51.324 91.737,40.334 93.714,40.334 99.333,47.963 
		99.333,40.334 101.261,40.334 101.261,51.324 	"/>
	<path d="M105.25,51.324v-10.99h4.086c3.427,0,5.75,2.273,5.75,5.503s-2.323,5.487-5.75,5.487H105.25z M113.109,45.837
		c0-2.125-1.318-3.806-3.773-3.806h-2.159v7.596h2.159C111.725,49.627,113.109,47.913,113.109,45.837"/>
	<path d="M117.889,49.775l1.071-1.483c0.758,0.807,1.944,1.516,3.477,1.516c1.582,0,2.208-0.774,2.208-1.499
		c0-2.307-6.41-0.874-6.41-4.927c0-1.813,1.598-3.213,4.004-3.213c1.713,0,3.097,0.544,4.119,1.532l-1.104,1.433
		c-0.856-0.856-2.026-1.252-3.18-1.252c-1.137,0-1.862,0.544-1.862,1.368c0,2.042,6.393,0.774,6.393,4.877
		c0,1.83-1.285,3.395-4.251,3.395C120.328,51.522,118.861,50.813,117.889,49.775"/>
	<polygon points="137.68,51.324 137.68,46.53 131.962,46.53 131.962,51.324 130.034,51.324 130.034,40.334 131.962,40.334 
		131.962,44.832 137.68,44.832 137.68,40.334 139.607,40.334 139.607,51.324 	"/>
	<path d="M143.103,45.837c0-3.279,2.323-5.685,5.619-5.685s5.619,2.406,5.619,5.685c0,3.279-2.323,5.685-5.619,5.685
		S143.103,49.117,143.103,45.837 M152.362,45.837c0-2.274-1.434-3.971-3.641-3.971c-2.225,0-3.642,1.697-3.642,3.971
		c0,2.258,1.417,3.971,3.642,3.971C150.929,49.809,152.362,48.095,152.362,45.837"/>
	<path d="M157.852,51.324v-10.99h4.828c2.307,0,3.592,1.582,3.592,3.444s-1.302,3.444-3.592,3.444h-2.9v4.103H157.852z
		 M164.294,43.778c0-1.055-0.791-1.747-1.878-1.747h-2.636v3.494h2.636C163.503,45.525,164.294,44.832,164.294,43.778"/>
</g>
</svg>
